<?xml version="1.0" standalone="no"?>
<!DOCTYPE svg PUBLIC "-//W3C//DTD SVG 20010904//EN"
 "http://www.w3.org/TR/2001/REC-SVG-20010904/DTD/svg10.dtd">
<svg version="1.0" xmlns="http://www.w3.org/2000/svg"
 width="41.000000pt" height="32.000000pt" viewBox="0 0 41.000000 32.000000"
 preserveAspectRatio="xMidYMid meet">

<g transform="translate(0.000000,32.000000) scale(0.100000,-0.100000)"
fill="#000000" stroke="none">
<path d="M195 278 c-11 -6 -25 -19 -32 -27 -19 -24 -16 -86 6 -112 18 -23 18
-24 -5 -61 -36 -57 -33 -61 50 -56 61 3 79 8 100 27 36 33 40 66 17 114 l-21
41 26 43 25 43 -73 0 c-40 0 -82 -6 -93 -12z m125 -15 c-1 -16 -39 -58 -46
-51 -4 4 -1 14 6 23 11 13 8 15 -19 15 -48 0 -71 -16 -71 -49 0 -34 15 -48 55
-53 24 -2 31 -8 33 -30 3 -23 -1 -28 -19 -28 -18 0 -20 3 -11 12 19 19 14 28
-15 28 -38 0 -63 27 -63 67 0 51 29 73 95 73 30 0 55 -3 55 -7z m-78 -45 c-19
-19 -14 -25 23 -32 47 -9 72 -53 53 -93 -7 -15 -24 -33 -38 -40 -27 -14 -114
-18 -108 -5 24 49 33 62 41 62 5 0 7 -10 3 -23 -5 -21 -3 -23 30 -19 77 9 74
102 -3 102 -25 0 -39 21 -29 45 3 8 13 15 23 15 13 0 14 -3 5 -12z"/>
</g>
</svg>
